<?xml version="1.0" encoding="UTF-8"?>
<svg id="Layer_2" data-name="Layer 2" xmlns="http://www.w3.org/2000/svg" viewBox="0 0 8013.91 1033.8">
  <defs>
    <style>
      .cls-1 {
        fill: #091950;
      }

      .cls-2 {
        fill: #396683;
      }
    </style>
  </defs>
  <g id="_레이어_1" data-name="레이어 1">
    <g>
      <g>
        <path class="cls-2" d="M2420.54,1008.72h-186.37c-40.83,0-66.34-43.4-45.9-78.14l93.17-158.58,93.15-158.56c20.44-34.72,71.47-34.72,91.89,0l93.17,158.56,93.17,158.58c20.44,34.74-5.07,78.14-45.95,78.14h-186.33Z"/>
        <path class="cls-1" d="M2282.4,488.02C2267.41,215.99,2042.11,0,1766.34,0c-137.86,0-262.94,54.15-355.62,142.05C1318.11,54.12,1192.98,0,1055.15,0c-237.48,0-437.39,160.21-497.98,378.39V20.01h-280.66c-12.36,29.44-30.36,57.06-54.29,80.98C161.84,161.34,78.38,184.61,0,171.19v226.28c95.52,8.79,193.09-10.88,278.87-59.38v675.7h278.3v-358.37c60.58,218.17,260.49,378.38,497.98,378.38,137.83,0,262.96-54.07,355.57-142.04,92.68,87.92,217.76,142.04,355.62,142.04,80.94,0,157.35-18.89,225.57-52.08l290.49-493.7ZM1055.15,774.64c-142.37,0-257.76-115.39-257.76-257.71s115.39-257.77,257.76-257.77,257.74,115.4,257.74,257.77-115.39,257.71-257.74,257.71M1508.62,516.92c0-142.36,115.39-257.77,257.73-257.77s257.78,115.4,257.78,257.77-115.44,257.71-257.78,257.71-257.73-115.39-257.73-257.71"/>
      </g>
      <g>
        <path class="cls-1" d="M3084.31,217.7h130.33v-108.24h133.13v472.13h-396.59V109.46h133.13v108.24ZM3625.06,957.48v-184.46h-635.06v-121.3h780.18v305.75h-145.12ZM3214.64,339.99h-130.33v119.28h130.33v-119.28ZM3421.68,606.62V99.4h133.13v184.46l81.32-31.1V99.4h134.05v507.22h-134.05v-218.54l-81.32,31.08v187.46h-133.13Z"/>
        <path class="cls-1" d="M4125.14,474.3c0,27.39-1.08,53.3-3.23,77.66-2.17,24.43-5.36,48.28-9.72,71.68l186.76,190.45-80.43,106.27-155.31-158.38c-19.71,34.74-44.81,65.65-75.35,92.72-30.49,27.09-67.63,49.27-111.38,66.68l-63.76-116.32c30.19-14.02,55.76-29.73,76.73-47.07,20.93-17.4,38.17-38.92,51.76-64.67,13.53-25.73,23.39-56.27,29.59-91.73,6.13-35.44,9.23-78.16,9.23-128.32V107.41h145.12v366.89ZM4336.84,937.39v-453.07l-130.32,49.12v-135.32l130.32-49.1V99.38h133.11v838.01h-133.11ZM4671.46,937.39h-134.03V99.38h134.03v838.01Z"/>
        <path class="cls-1" d="M5056.91,129.46h188.54v122.29h-522.23v-122.29h188.54V56.29h145.16v73.16ZM4983.88,286.81c80.08,0,140.05,15.4,179.76,46.16,39.75,30.75,59.64,74.82,59.64,132.31s-19.89,103.07-59.64,132.8c-39.71,29.8-99.68,44.63-179.76,44.63s-138.18-14.84-177.93-44.63c-39.75-29.72-59.65-73.96-59.65-132.8s19.9-101.55,59.65-132.31c39.76-30.76,99.01-46.16,177.93-46.16M4937.67,691.81v144.37h538.89v121.26h-684.02v-265.62h145.13ZM4983.88,393.13c-25.29,0-47.01,5.33-65.18,16.02-18.19,10.71-27.25,29.39-27.25,56.13s8.89,44.62,26.76,55.63c17.9,11.01,39.78,16.53,65.66,16.53,12.32,0,24.19-1.33,35.59-3.99,11.41-2.68,21.39-6.83,30.03-12.54,8.63-5.68,15.56-13.06,20.79-22.01,5.26-9.08,7.86-20.25,7.86-33.62s-2.6-24.55-7.86-33.59c-5.23-9-12.32-16.38-21.29-22.06-8.89-5.66-19.06-9.85-30.45-12.52-11.41-2.64-23.01-3.98-34.66-3.98M5467.33,439.2v288.73h-145.16V99.4h145.16v217.52h80.4v122.28h-80.4Z"/>
        <path class="cls-1" d="M5735.37,212.66h161.77v-103.19h145.1v452.01h-451.99V109.46h145.12v103.19ZM5967.39,977.46c-55.49,0-105.25-3.65-149.29-10.99-44.07-7.36-81.33-18.68-111.87-34.06-30.49-15.43-53.75-34.48-69.77-57.19-16.06-22.7-24.03-49.73-24.03-81.18s7.98-57.61,24.03-80.67c16.01-23.05,39.28-42.13,69.77-57.16,30.54-15,67.8-26.17,111.87-33.55,44.03-7.36,93.8-11.01,149.29-11.01s105.25,3.65,149.28,11.01c44.07,7.38,81.33,18.55,111.86,33.55,30.49,15.03,53.72,34.11,69.78,57.16,16.04,23.07,24.02,50,24.02,80.67s-7.98,58.48-24.02,81.18c-16.05,22.71-39.29,41.76-69.78,57.19-30.53,15.38-67.8,26.7-111.86,34.06-44.04,7.34-93.82,10.99-149.28,10.99M5897.14,334.94h-161.77v104.26h161.77v-104.26ZM5967.39,855.19c65.94,0,117.4-4.64,154.35-14.03,36.98-9.37,55.48-25.05,55.48-47.11s-18.5-37.7-55.48-47.12c-36.95-9.33-88.41-14.01-154.35-14.01s-117.39,4.68-154.36,14.01c-36.98,9.42-55.48,25.11-55.48,47.12s18.49,37.74,55.48,47.11c36.97,9.39,88.4,14.03,154.36,14.03M6303.88,379.04v207.54h-145.17V99.4h145.17v157.35h80.38v122.29h-80.38Z"/>
        <path class="cls-1" d="M6571.92,212.66h161.75v-103.23h145.12v452.05h-452.01V109.42h145.14v103.23ZM6817.82,977.52c-57.96,0-109.73-3.7-155.34-11.04-45.61-7.36-84.24-18.68-116.01-34.06-31.71-15.4-55.91-34.48-72.56-57.19-16.64-22.7-24.94-49.73-24.94-81.18s8.3-57.65,24.94-80.67c16.66-23.05,40.85-42.13,72.56-57.16,31.77-15,70.4-26.17,116.01-33.59,45.61-7.32,97.37-10.97,155.34-10.97s109.68,3.65,155.31,10.97c45.55,7.42,84.24,18.59,115.98,33.59,31.74,15.03,55.94,34.11,72.55,57.16,16.64,23.03,24.97,49.95,24.97,80.67s-8.33,58.48-24.97,81.18c-16.62,22.71-40.82,41.79-72.55,57.19-31.75,15.38-70.44,26.7-115.98,34.06-45.63,7.34-97.42,11.04-155.31,11.04M6733.67,334.94h-161.75v104.26h161.75v-104.26ZM6817.82,855.22c70.85,0,125.84-4.71,164.99-14.04,39.12-9.39,58.66-25.07,58.66-47.13s-19.55-37.73-58.66-47.09c-39.16-9.36-94.14-14-164.99-14s-125.89,4.64-165.02,14c-39.16,9.36-58.69,25.08-58.69,47.09s19.54,37.74,58.69,47.13c39.13,9.33,94.14,14.04,165.02,14.04M7168.11,99.38v496.19h-145.1v-126.3l-116.47,23.1v-119.32l116.47-25.04v-63.15l-116.47,24.03v-119.27l116.47-25.02v-65.2h145.1Z"/>
        <path class="cls-1" d="M7444.52,769v-107.25h-216.32v-122.28h576.81v122.28h-215.39v107.25h-145.1ZM7242.08,292.84c0-60.81,23.09-108.04,69.31-141.78,46.25-33.75,110.91-50.64,194.1-50.64,65.96,0,120.34,10.64,163.17,32.04,42.84,21.42,72.24,52.1,88.27,92.21l102.64-25.04v-100.24h145.07v657.58h-145.07v-432.06l-98,24.07c-12.95,44.14-41.59,77.9-85.97,101.26-44.41,23.36-101.11,35.07-170.11,35.07-83.2,0-147.86-16.88-194.1-50.62-46.22-33.72-69.31-80.99-69.31-141.84M7416.76,711.84v124.33h597.15v121.26h-742.24v-245.58h145.09ZM7387.2,292.84c0,11.39,3.38,21.59,10.2,30.56,6.76,9.07,15.67,16.59,26.75,22.58,11.11,6,23.73,10.55,37.91,13.55,14.17,2.99,28.67,4.48,43.44,4.48s29.44-1.62,43.91-5.01c14.5-3.34,27.42-7.98,38.82-14.04,11.41-6,20.5-13.35,27.3-22.01,6.79-8.67,10.15-18.72,10.15-30.11,0-22.01-11.24-39.41-33.72-52.14-22.51-12.66-51.32-18.98-86.45-18.98s-62.83,5.96-85.04,18.03c-22.14,12-33.25,29.72-33.25,53.09"/>
      </g>
    </g>
  </g>
</svg>