<?xml version="1.0" encoding="UTF-8"?>
<svg id="Layer_2" data-name="Layer 2" xmlns="http://www.w3.org/2000/svg" viewBox="0 0 2660.02 1033.8">
  <defs>
    <style>
      .cls-1 {
        fill: #091950;
      }

      .cls-2 {
        fill: #396683;
      }
    </style>
  </defs>
  <g id="_레이어_1" data-name="레이어 1">
    <g>
      <path class="cls-2" d="M2420.54,1008.72h-186.37c-40.83,0-66.34-43.4-45.9-78.14l93.17-158.58,93.15-158.56c20.44-34.72,71.47-34.72,91.89,0l93.17,158.56,93.17,158.58c20.44,34.74-5.07,78.14-45.95,78.14h-186.33Z"/>
      <path class="cls-1" d="M2282.4,488.02C2267.41,215.99,2042.11,0,1766.34,0c-137.86,0-262.94,54.15-355.62,142.05C1318.11,54.12,1192.98,0,1055.15,0c-237.48,0-437.39,160.21-497.98,378.39V20.01h-280.66c-12.36,29.44-30.36,57.06-54.29,80.98C161.84,161.34,78.38,184.61,0,171.19v226.28c95.52,8.79,193.09-10.88,278.87-59.38v675.7h278.3v-358.37c60.58,218.17,260.49,378.38,497.98,378.38,137.83,0,262.96-54.07,355.57-142.04,92.68,87.92,217.76,142.04,355.62,142.04,80.94,0,157.35-18.89,225.57-52.08l290.49-493.7ZM1055.15,774.64c-142.37,0-257.76-115.39-257.76-257.71s115.39-257.77,257.76-257.77,257.74,115.4,257.74,257.77-115.39,257.71-257.74,257.71M1508.62,516.92c0-142.36,115.39-257.77,257.73-257.77s257.78,115.4,257.78,257.77-115.44,257.71-257.78,257.71-257.73-115.39-257.73-257.71"/>
    </g>
  </g>
</svg>