<?xml version="1.0" encoding="UTF-8"?>
<svg id="Layer_2" data-name="Layer 2" xmlns="http://www.w3.org/2000/svg" viewBox="0 0 5062.74 921.22">
  <defs>
    <style>
      .cls-1 {
        fill: #091950;
      }
    </style>
  </defs>
  <g id="_레이어_1" data-name="레이어 1">
    <g>
      <path class="cls-1" d="M133.13,161.41h130.33V53.17h133.13v472.13H0V53.17h133.13v108.24ZM673.88,901.19v-184.46H38.82v-121.3h780.18v305.75h-145.12ZM263.46,283.69h-130.33v119.28h130.33v-119.28ZM470.5,550.32V43.1h133.13v184.46l81.32-31.1V43.1h134.05v507.22h-134.05v-218.54l-81.32,31.08v187.46h-133.13Z"/>
      <path class="cls-1" d="M1173.96,418.01c0,27.39-1.08,53.3-3.23,77.66-2.17,24.43-5.36,48.28-9.72,71.68l186.76,190.45-80.43,106.27-155.31-158.38c-19.71,34.74-44.81,65.65-75.35,92.72-30.49,27.09-67.63,49.27-111.38,66.68l-63.76-116.32c30.19-14.02,55.76-29.73,76.73-47.07,20.93-17.4,38.17-38.92,51.76-64.67,13.53-25.73,23.39-56.27,29.59-91.73,6.13-35.44,9.23-78.16,9.23-128.32V51.11h145.12v366.89ZM1385.66,881.1v-453.07l-130.32,49.12v-135.32l130.32-49.1V43.08h133.11v838.01h-133.11ZM1720.28,881.1h-134.03V43.08h134.03v838.01Z"/>
      <path class="cls-1" d="M2105.73,73.16h188.54v122.29h-522.23v-122.29h188.54V0h145.16v73.16ZM2032.7,230.51c80.08,0,140.05,15.4,179.76,46.16,39.75,30.75,59.64,74.82,59.64,132.31s-19.89,103.07-59.64,132.8c-39.71,29.8-99.68,44.63-179.76,44.63s-138.18-14.84-177.93-44.63c-39.75-29.72-59.65-73.96-59.65-132.8s19.9-101.55,59.65-132.31c39.76-30.76,99.01-46.16,177.93-46.16M1986.49,635.51v144.37h538.89v121.26h-684.02v-265.62h145.13ZM2032.7,336.83c-25.29,0-47.01,5.33-65.18,16.02-18.19,10.71-27.25,29.39-27.25,56.13s8.89,44.62,26.76,55.63c17.9,11.01,39.78,16.53,65.66,16.53,12.32,0,24.19-1.33,35.59-3.99,11.41-2.68,21.39-6.83,30.03-12.54,8.63-5.68,15.56-13.06,20.79-22.01,5.26-9.08,7.86-20.25,7.86-33.62s-2.6-24.55-7.86-33.59c-5.23-9-12.32-16.38-21.29-22.06-8.89-5.66-19.06-9.85-30.45-12.52-11.41-2.64-23.01-3.98-34.66-3.98M2516.16,382.91v288.73h-145.16V43.1h145.16v217.52h80.4v122.28h-80.4Z"/>
      <path class="cls-1" d="M2784.2,156.36h161.77V53.17h145.1v452.01h-451.99V53.17h145.12v103.19ZM3016.21,921.17c-55.49,0-105.25-3.65-149.29-10.99-44.07-7.36-81.33-18.68-111.87-34.06-30.49-15.43-53.75-34.48-69.77-57.19-16.06-22.7-24.03-49.73-24.03-81.18s7.98-57.61,24.03-80.67c16.01-23.05,39.28-42.13,69.77-57.16,30.54-15,67.8-26.17,111.87-33.55,44.03-7.36,93.8-11.01,149.29-11.01s105.25,3.65,149.28,11.01c44.07,7.38,81.33,18.55,111.86,33.55,30.49,15.03,53.72,34.11,69.78,57.16,16.04,23.07,24.02,50,24.02,80.67s-7.98,58.48-24.02,81.18c-16.05,22.71-39.29,41.76-69.78,57.19-30.53,15.38-67.8,26.7-111.86,34.06-44.04,7.34-93.82,10.99-149.28,10.99M2945.96,278.65h-161.77v104.26h161.77v-104.26ZM3016.21,798.9c65.94,0,117.4-4.64,154.35-14.03,36.98-9.37,55.48-25.05,55.48-47.11s-18.5-37.7-55.48-47.12c-36.95-9.33-88.41-14.01-154.35-14.01s-117.39,4.68-154.36,14.01c-36.98,9.42-55.48,25.11-55.48,47.12s18.49,37.74,55.48,47.11c36.97,9.39,88.4,14.03,154.36,14.03M3352.7,322.75v207.54h-145.17V43.1h145.17v157.35h80.38v122.29h-80.38Z"/>
      <path class="cls-1" d="M3620.74,156.36h161.75V53.13h145.12v452.05h-452.01V53.13h145.14v103.23ZM3866.64,921.22c-57.96,0-109.73-3.7-155.34-11.04-45.61-7.36-84.24-18.68-116.01-34.06-31.71-15.4-55.91-34.48-72.56-57.19-16.64-22.7-24.94-49.73-24.94-81.18s8.3-57.65,24.94-80.67c16.66-23.05,40.85-42.13,72.56-57.16,31.77-15,70.4-26.17,116.01-33.59,45.61-7.32,97.37-10.97,155.34-10.97s109.68,3.65,155.31,10.97c45.55,7.42,84.24,18.59,115.98,33.59,31.74,15.03,55.94,34.11,72.55,57.16,16.64,23.03,24.97,49.95,24.97,80.67s-8.33,58.48-24.97,81.18c-16.62,22.71-40.82,41.79-72.55,57.19-31.75,15.38-70.44,26.7-115.98,34.06-45.63,7.34-97.42,11.04-155.31,11.04M3782.49,278.65h-161.75v104.26h161.75v-104.26ZM3866.64,798.93c70.85,0,125.84-4.71,164.99-14.04,39.12-9.39,58.66-25.07,58.66-47.13s-19.55-37.73-58.66-47.09c-39.16-9.36-94.14-14-164.99-14s-125.89,4.64-165.02,14c-39.16,9.36-58.69,25.08-58.69,47.09s19.54,37.74,58.69,47.13c39.13,9.33,94.14,14.04,165.02,14.04M4216.94,43.08v496.19h-145.1v-126.3l-116.47,23.1v-119.32l116.47-25.04v-63.15l-116.47,24.03v-119.27l116.47-25.02V43.08h145.1Z"/>
      <path class="cls-1" d="M4493.34,712.71v-107.25h-216.32v-122.28h576.81v122.28h-215.39v107.25h-145.1ZM4290.91,236.55c0-60.81,23.09-108.04,69.31-141.78,46.25-33.75,110.91-50.64,194.1-50.64,65.96,0,120.34,10.64,163.17,32.04,42.84,21.42,72.24,52.1,88.27,92.21l102.64-25.04V43.1h145.07v657.58h-145.07v-432.06l-98,24.07c-12.95,44.14-41.59,77.9-85.97,101.26-44.41,23.36-101.11,35.07-170.11,35.07-83.2,0-147.86-16.88-194.1-50.62-46.22-33.72-69.31-80.99-69.31-141.84M4465.58,655.55v124.33h597.15v121.26h-742.24v-245.58h145.09ZM4436.02,236.55c0,11.39,3.38,21.59,10.2,30.56,6.76,9.07,15.67,16.59,26.75,22.58,11.11,6,23.73,10.55,37.91,13.55,14.17,2.99,28.67,4.48,43.44,4.48s29.44-1.62,43.91-5.01c14.5-3.34,27.42-7.98,38.82-14.04,11.41-6,20.5-13.35,27.3-22.01,6.79-8.67,10.15-18.72,10.15-30.11,0-22.01-11.24-39.41-33.72-52.14-22.51-12.66-51.32-18.98-86.45-18.98s-62.83,5.96-85.04,18.03c-22.14,12-33.25,29.72-33.25,53.09"/>
    </g>
  </g>
</svg>